<svg width="343" height="50" viewBox="0 0 343 50" fill="none" xmlns="http://www.w3.org/2000/svg">
<rect width="343" height="50" rx="8" fill="white"/>
<rect width="343" height="50" rx="8" stroke="black"/>
<path d="M105.44 17.9082V32H107.628V27.1855H110.655C113.419 27.1855 115.362 25.291 115.362 22.5371C115.362 19.793 113.458 17.9082 110.723 17.9082H105.44ZM107.628 19.7539H110.147C112.042 19.7539 113.126 20.7695 113.126 22.5469C113.126 24.3242 112.042 25.3496 110.138 25.3496H107.628V19.7539ZM119.846 30.5059C118.713 30.5059 117.971 29.9199 117.971 29.0215C117.971 28.1426 118.684 27.5859 119.943 27.498L122.473 27.3418V28.1523C122.473 29.4902 121.32 30.5059 119.846 30.5059ZM119.26 32.1758C120.607 32.1758 121.906 31.4531 122.502 30.3105H122.551V32H124.572V24.9199C124.572 22.8594 122.98 21.541 120.49 21.541C117.951 21.541 116.369 22.9082 116.252 24.7637H118.244C118.43 23.8457 119.191 23.2598 120.412 23.2598C121.701 23.2598 122.473 23.9434 122.473 25.0859V25.877L119.66 26.043C117.219 26.1797 115.842 27.2832 115.842 29.0801C115.842 30.9258 117.248 32.1758 119.26 32.1758ZM127.689 35.8281C129.827 35.8281 130.833 35.0273 131.712 32.5371L135.57 21.7266H133.343L130.736 30.0859H130.706L128.099 21.7266H125.814L129.525 32.0098C129.525 32.0195 129.339 32.625 129.339 32.6445C129.017 33.6992 128.499 34.1094 127.513 34.1094C127.337 34.1094 126.986 34.1094 126.829 34.0703V35.7793C126.986 35.8086 127.523 35.8281 127.689 35.8281ZM154.527 21.7266H152.437L150.562 29.8125H150.513L148.365 21.7266H146.334L144.195 29.8125H144.156L142.281 21.7266H140.171L142.994 32H145.171L147.31 24.3047H147.359L149.517 32H151.714L154.527 21.7266ZM155.934 32H158.044V21.7266H155.934V32ZM156.989 20.2227C157.673 20.2227 158.22 19.6855 158.22 19.0215C158.22 18.3477 157.673 17.8105 156.989 17.8105C156.315 17.8105 155.768 18.3477 155.768 19.0215C155.768 19.6855 156.315 20.2227 156.989 20.2227ZM160.867 19.2949V21.7266H159.373V23.3965H160.867V29.2949C160.867 31.2773 161.678 32.0684 163.758 32.0684C164.227 32.0684 164.695 32.0293 164.93 31.9707V30.3008C164.793 30.3301 164.451 30.3496 164.236 30.3496C163.377 30.3496 162.986 29.9492 162.986 29.0605V23.3965H164.939V21.7266H162.986V19.2949H160.867ZM166.806 32H168.915V26.0625C168.915 24.4414 169.872 23.3672 171.435 23.3672C172.919 23.3672 173.681 24.2754 173.681 25.7891V32H175.8V25.3789C175.8 23.0547 174.452 21.5508 172.196 21.5508C170.634 21.5508 169.511 22.2441 168.945 23.4453H168.896V17.9082H166.806V32Z" fill="black"/>
<path d="M193.748 19.8275C192.411 19.8275 191.333 20.636 190.637 20.636C189.907 20.636 188.93 19.8724 187.773 19.8724C185.572 19.8724 183.337 21.7029 183.337 25.1282C183.337 27.2733 184.168 29.5306 185.19 31.0018C186.055 32.2259 186.83 33.2366 187.93 33.2366C189.02 33.2366 189.503 32.5179 190.862 32.5179C192.232 32.5179 192.546 33.2142 193.748 33.2142C194.95 33.2142 195.747 32.1248 196.499 31.0467C197.33 29.8001 197.69 28.5872 197.701 28.5311C197.634 28.5086 195.343 27.5765 195.343 24.9485C195.343 22.68 197.139 21.6693 197.241 21.5906C196.061 19.8724 194.253 19.8275 193.748 19.8275ZM193.13 18.3787C193.669 17.7161 194.051 16.8177 194.051 15.908C194.051 15.7845 194.04 15.6609 194.017 15.5599C193.141 15.5936 192.063 16.1439 191.423 16.8963C190.929 17.4691 190.457 18.3787 190.457 19.2884C190.457 19.4232 190.48 19.5692 190.491 19.6141C190.547 19.6253 190.637 19.6365 190.727 19.6365C191.524 19.6365 192.535 19.0975 193.13 18.3787ZM202.115 16.8289V33.0345H205.013V27.7225H208.528C211.807 27.7225 214.098 25.5213 214.098 22.3094C214.098 19.0413 211.886 16.8289 208.652 16.8289H202.115ZM205.013 19.2547H207.888C209.977 19.2547 211.156 20.3216 211.156 22.3094C211.156 24.241 209.943 25.3192 207.877 25.3192H205.013V19.2547ZM219.535 31.0467C218.3 31.0467 217.412 30.429 217.412 29.3958C217.412 28.3963 218.142 27.8348 219.703 27.7337L222.477 27.554V28.5311C222.477 29.9573 221.219 31.0467 219.535 31.0467ZM218.715 33.2366C220.321 33.2366 221.669 32.5403 222.354 31.3499H222.545V33.0345H225.229V24.6453C225.229 22.0399 223.454 20.5013 220.299 20.5013C217.379 20.5013 215.346 21.8826 215.121 24.0501H217.749C218.008 23.2191 218.884 22.7698 220.164 22.7698C221.669 22.7698 222.477 23.4437 222.477 24.6453V25.6785L219.31 25.8694C216.323 26.0491 214.65 27.3294 214.65 29.553C214.65 31.7991 216.345 33.2366 218.715 33.2366ZM228.329 37.493C231.081 37.493 232.395 36.4822 233.439 33.4276L237.875 20.7484H234.933L232.069 30.3392H231.878L229.003 20.7484H225.948L230.34 33.0906L230.194 33.6297C229.834 34.764 229.172 35.2132 227.992 35.2132C227.801 35.2132 227.386 35.202 227.229 35.1683V37.4481C227.408 37.4818 228.161 37.493 228.329 37.493Z" fill="black"/>
</svg>
