<svg width="25" height="25" viewBox="0 0 25 25" fill="none" xmlns="http://www.w3.org/2000/svg">
<path d="M6.95881 13.811V3.82487L8.32637 5.55556L9.74108 4.16667L11.1244 5.55556L12.5076 4.16667L13.9066 5.55556L15.2899 4.16667L16.6417 5.55556L18.0565 4.2087L19.4555 5.65283L20.8334 3.82487L20.8505 17.6294C20.8519 18.7507 20.8526 19.3114 20.6348 19.7398C20.4432 20.1166 20.1372 20.423 19.7606 20.615C19.3325 20.8333 18.7718 20.8333 17.6505 20.8333H5.12622" stroke="white" stroke-width="0.8" stroke-linejoin="round"/>
<path d="M3.50342 12.7111C3.50342 12.1511 3.50342 11.871 3.61241 11.6571C3.70828 11.469 3.86127 11.316 4.04943 11.2201C4.26334 11.1111 4.54337 11.1111 5.10342 11.1111H6.93443V19.1178C6.93443 20.0653 6.16637 20.8333 5.21892 20.8333V20.8333C4.27148 20.8333 3.50342 20.0653 3.50342 19.1178V12.7111Z" stroke="white" stroke-width="0.8"/>
</svg>
