<svg width="353" height="60" viewBox="0 0 353 60" fill="none" xmlns="http://www.w3.org/2000/svg">
<g filter="url(#filter0_d_10_920)">
<rect x="5" y="5" width="343" height="50" rx="4" fill="white"/>
<path d="M102.648 22.68H108.048C108.622 22.68 109.162 22.78 109.668 22.98C110.188 23.1667 110.642 23.4333 111.028 23.78C111.428 24.1133 111.742 24.5133 111.968 24.98C112.195 25.4467 112.308 25.9533 112.308 26.5C112.308 27.2333 112.122 27.86 111.748 28.38C111.388 28.8867 110.928 29.2667 110.368 29.52V29.64C111.088 29.8933 111.668 30.3067 112.108 30.88C112.562 31.4533 112.788 32.1467 112.788 32.96C112.788 33.5733 112.668 34.1267 112.428 34.62C112.188 35.1133 111.862 35.54 111.448 35.9C111.035 36.2467 110.555 36.52 110.008 36.72C109.475 36.9067 108.902 37 108.288 37H102.648V22.68ZM107.968 28.66C108.302 28.66 108.602 28.6067 108.868 28.5C109.135 28.38 109.355 28.2333 109.528 28.06C109.715 27.8733 109.855 27.6667 109.948 27.44C110.042 27.2 110.088 26.96 110.088 26.72C110.088 26.48 110.042 26.2467 109.948 26.02C109.855 25.78 109.722 25.5733 109.548 25.4C109.375 25.2133 109.162 25.0667 108.908 24.96C108.655 24.84 108.368 24.78 108.048 24.78H104.908V28.66H107.968ZM108.288 34.9C108.648 34.9 108.968 34.84 109.248 34.72C109.528 34.6 109.762 34.44 109.948 34.24C110.135 34.04 110.275 33.8133 110.368 33.56C110.475 33.3067 110.528 33.0467 110.528 32.78C110.528 32.5133 110.475 32.26 110.368 32.02C110.275 31.7667 110.128 31.5467 109.928 31.36C109.728 31.16 109.482 31 109.188 30.88C108.908 30.76 108.582 30.7 108.208 30.7H104.908V34.9H108.288ZM121.875 35.68H121.755C121.461 36.1467 121.041 36.54 120.495 36.86C119.961 37.1667 119.355 37.32 118.675 37.32C117.435 37.32 116.508 36.9533 115.895 36.22C115.281 35.4733 114.975 34.4867 114.975 33.26V27.2H117.195V32.96C117.195 33.8133 117.388 34.4133 117.775 34.76C118.175 35.0933 118.695 35.26 119.335 35.26C119.708 35.26 120.041 35.18 120.335 35.02C120.641 34.86 120.901 34.6467 121.115 34.38C121.328 34.1 121.488 33.7867 121.595 33.44C121.701 33.08 121.755 32.7067 121.755 32.32V27.2H123.975V37H121.875V35.68ZM129.747 36.44L125.667 27.2H128.147L130.847 33.7H130.947L133.567 27.2H136.027L129.887 41.32H127.527L129.747 36.44ZM141.589 27.2H144.009L145.909 33.98H145.989L148.189 27.2H150.489L152.669 33.98H152.749L154.629 27.2H157.009L153.869 37H151.529L149.309 30.14H149.229L147.069 37H144.729L141.589 27.2ZM159.995 25.46C159.568 25.46 159.208 25.3133 158.915 25.02C158.635 24.7267 158.495 24.3733 158.495 23.96C158.495 23.5467 158.635 23.1933 158.915 22.9C159.208 22.6067 159.568 22.46 159.995 22.46C160.408 22.46 160.755 22.6067 161.035 22.9C161.328 23.1933 161.475 23.5467 161.475 23.96C161.475 24.3733 161.328 24.7267 161.035 25.02C160.755 25.3133 160.408 25.46 159.995 25.46ZM158.875 37V27.2H161.095V37H158.875ZM164.982 29.16H163.262V27.2H164.982V24.2H167.202V27.2H169.622V29.16H167.202V33.52C167.202 33.76 167.229 33.98 167.282 34.18C167.336 34.38 167.416 34.5467 167.522 34.68C167.749 34.9333 168.036 35.06 168.382 35.06C168.596 35.06 168.762 35.0467 168.882 35.02C169.002 34.98 169.129 34.9267 169.262 34.86L169.942 36.82C169.662 36.9267 169.369 37.0067 169.062 37.06C168.756 37.1267 168.409 37.16 168.022 37.16C167.556 37.16 167.142 37.0867 166.782 36.94C166.422 36.7933 166.109 36.5933 165.842 36.34C165.269 35.7667 164.982 34.9867 164.982 34V29.16ZM172.059 22.68H174.279V26.94L174.159 28.52H174.279C174.559 28.0533 174.972 27.6667 175.519 27.36C176.065 27.04 176.672 26.88 177.339 26.88C177.979 26.88 178.532 26.98 178.999 27.18C179.465 27.3667 179.852 27.64 180.159 28C180.465 28.36 180.692 28.7933 180.839 29.3C180.985 29.7933 181.059 30.34 181.059 30.94V37H178.839V31.24C178.839 30.4267 178.639 29.84 178.239 29.48C177.852 29.12 177.359 28.94 176.759 28.94C176.372 28.94 176.025 29.0267 175.719 29.2C175.425 29.36 175.165 29.58 174.939 29.86C174.725 30.14 174.559 30.46 174.439 30.82C174.332 31.18 174.279 31.5533 174.279 31.94V37H172.059V22.68Z" fill="#3C4043"/>
<path d="M218.951 29.6726V36.7486H216.69V19.2749H222.684C224.203 19.2749 225.498 19.7778 226.558 20.7837C227.641 21.7895 228.183 23.0176 228.183 24.4679C228.183 25.9533 227.641 27.1813 226.558 28.1755C225.51 29.1696 224.215 29.6609 222.684 29.6609H218.951V29.6726ZM218.951 21.4269V27.5205H222.731C223.626 27.5205 224.38 27.2164 224.968 26.6199C225.569 26.0234 225.875 25.2983 225.875 24.4796C225.875 23.6726 225.569 22.9591 224.968 22.3626C224.38 21.7427 223.638 21.4386 222.731 21.4386H218.951V21.4269Z" fill="#5F6368"/>
<path d="M234.094 24.3975C235.766 24.3975 237.085 24.8419 238.05 25.7308C239.016 26.6197 239.499 27.8361 239.499 29.3799V36.7483H237.344V35.0875H237.25C236.319 36.4559 235.071 37.1343 233.517 37.1343C232.186 37.1343 231.08 36.7483 230.185 35.9647C229.29 35.1811 228.842 34.2103 228.842 33.0407C228.842 31.801 229.313 30.8185 230.255 30.0934C231.197 29.3565 232.457 28.9939 234.023 28.9939C235.366 28.9939 236.473 29.2396 237.332 29.7308V29.2162C237.332 28.4325 237.026 27.7776 236.402 27.2279C235.778 26.6782 235.048 26.4092 234.212 26.4092C232.952 26.4092 231.951 26.9355 231.221 27.9998L229.231 26.76C230.326 25.1811 231.951 24.3975 234.094 24.3975ZM231.174 33.0758C231.174 33.6606 231.421 34.1518 231.927 34.5378C232.422 34.9238 233.011 35.1226 233.682 35.1226C234.636 35.1226 235.483 34.7717 236.225 34.07C236.967 33.3682 237.344 32.5495 237.344 31.6021C236.637 31.0524 235.66 30.7717 234.4 30.7717C233.482 30.7717 232.716 30.9939 232.104 31.4267C231.48 31.8828 231.174 32.4325 231.174 33.0758Z" fill="#5F6368"/>
<path d="M251.792 24.7837L244.256 42.0001H241.924L244.727 35.9767L239.758 24.7837H242.219L245.798 33.3685H245.846L249.331 24.7837H251.792Z" fill="#5F6368"/>
<path d="M209.959 28.2456C209.959 27.5134 209.893 26.8128 209.77 26.1392H200.294V29.9988L205.751 30C205.53 31.2842 204.818 32.3789 203.726 33.1087V35.6128H206.975C208.872 33.869 209.959 31.2912 209.959 28.2456Z" fill="#4285F4"/>
<path d="M203.727 33.1085C202.823 33.7144 201.658 34.0688 200.296 34.0688C197.664 34.0688 195.432 32.3074 194.632 29.9331H191.281V32.5156C192.941 35.7881 196.354 38.0337 200.296 38.0337C203.021 38.0337 205.31 37.1436 206.976 35.6115L203.727 33.1085Z" fill="#34A853"/>
<path d="M194.317 28.0175C194.317 27.3508 194.428 26.7064 194.632 26.1005V23.5181H191.281C190.594 24.8713 190.208 26.3988 190.208 28.0175C190.208 29.6362 190.596 31.1637 191.281 32.5169L194.632 29.9344C194.428 29.3286 194.317 28.6841 194.317 28.0175Z" fill="#FABB05"/>
<path d="M200.296 21.9649C201.783 21.9649 203.115 22.4737 204.166 23.4678L207.045 20.6105C205.297 18.993 203.017 18 200.296 18C196.355 18 192.941 20.2456 191.281 23.5181L194.632 26.1006C195.432 23.7263 197.664 21.9649 200.296 21.9649Z" fill="#E94235"/>
</g>
<defs>
<filter id="filter0_d_10_920" x="0" y="0" width="353" height="60" filterUnits="userSpaceOnUse" color-interpolation-filters="sRGB">
<feFlood flood-opacity="0" result="BackgroundImageFix"/>
<feColorMatrix in="SourceAlpha" type="matrix" values="0 0 0 0 0 0 0 0 0 0 0 0 0 0 0 0 0 0 127 0" result="hardAlpha"/>
<feOffset/>
<feGaussianBlur stdDeviation="2.5"/>
<feColorMatrix type="matrix" values="0 0 0 0 0 0 0 0 0 0 0 0 0 0 0 0 0 0 0.2 0"/>
<feBlend mode="normal" in2="BackgroundImageFix" result="effect1_dropShadow_10_920"/>
<feBlend mode="normal" in="SourceGraphic" in2="effect1_dropShadow_10_920" result="shape"/>
</filter>
</defs>
</svg>
