<svg width="148" height="41" viewBox="0 0 148 41" fill="none" xmlns="http://www.w3.org/2000/svg">
<g clip-path="url(#clip0_13_1319)">
<path d="M36.2841 4.84413e-05V0.437241C36.2841 2.63251 36.2717 4.82777 36.2965 7.02304C36.3028 7.46643 36.1504 7.7672 35.8488 8.06176C34.0609 9.82603 32.2854 11.5996 30.5068 13.3763C30.0155 13.8662 29.5335 14.3685 29.0422 14.8615C28.8992 15.0041 28.7406 15.1344 28.4918 15.3576C28.4918 15.0506 28.4918 14.8522 28.4918 14.6569C28.4918 12.4988 28.4918 10.3438 28.4918 8.18579C28.4918 7.64937 28.4918 7.65247 27.9726 7.65247C25.7773 7.65557 23.5789 7.65867 21.3837 7.65867C21.2593 7.65867 21.1349 7.64627 20.9297 7.63697C21.0385 7.48814 21.0914 7.39202 21.166 7.3176C23.5167 4.98901 25.8675 2.65731 28.2307 0.344222C28.4079 0.170585 28.694 0.0155517 28.9303 0.0124511C31.3587 -0.0123542 33.7841 -0.00305222 36.281 -0.00305222L36.2841 4.84413e-05Z" fill="#997D36"/>
<path d="M0 15.3886C1.20024 15.3886 2.36317 15.3979 3.52299 15.3824C3.84949 15.3793 3.83083 15.5653 3.83083 15.7792C3.83083 17.3451 3.82772 18.9109 3.82772 20.4767C3.82772 21.2085 3.84016 21.9403 3.82772 22.672C3.8215 22.9852 3.921 23.0999 4.24749 23.0968C5.38244 23.0813 6.51739 23.0906 7.68342 23.0906V27.0067C7.56527 27.0067 7.43156 27.0067 7.29785 27.0067C6.27796 27.0067 5.25806 27.0191 4.23817 27.0005C3.90857 26.9943 3.82461 27.1091 3.82772 27.4222C3.84016 29.7322 3.83705 32.0422 3.84016 34.3553C3.84016 34.4545 3.84016 34.5568 3.84016 34.6871H0V15.3917V15.3886Z" fill="white"/>
<path d="M11.6169 27.3292C11.6169 27.0192 11.5392 26.9044 11.2065 26.9137C10.3047 26.9385 9.39987 26.923 8.49502 26.923C8.35821 26.923 8.22139 26.9106 7.95398 26.8982C8.11878 26.6874 8.19652 26.5572 8.29913 26.4548C9.33768 25.4192 10.3793 24.3867 11.4303 23.3604C11.5298 23.2612 11.6884 23.1712 11.8221 23.165C12.9571 23.1309 14.092 23.1216 15.227 23.0968C15.4477 23.0906 15.5255 23.1899 15.5255 23.3945C15.5224 24.5107 15.5441 25.6301 15.4975 26.7432C15.4882 26.9634 15.2518 27.2052 15.0684 27.3881C14.0205 28.4331 12.9571 29.4625 11.903 30.5012C11.8408 30.5632 11.7288 30.6345 11.6169 30.7648" fill="#997D36"/>
<path d="M11.6262 15.3886C12.8358 15.3886 14.0081 15.3979 15.1834 15.3824C15.4819 15.3793 15.5534 15.4785 15.5503 15.7576C15.5379 16.8087 15.5566 17.8629 15.541 18.914C15.541 19.0722 15.4633 19.2706 15.3513 19.3822C14.1666 20.5636 12.9695 21.7325 11.7755 22.9046C11.7506 22.9294 11.7102 22.9356 11.6262 22.9697V15.3886Z" fill="white"/>
<path d="M17.6337 19.6458H21.6138L24.3594 31.2546H25.0528L27.7984 19.6458H31.7816L26.4738 41.0031H22.5217L24.1821 34.687H21.3463L17.6368 19.6489L17.6337 19.6458Z" fill="white"/>
<path d="M38.1435 41H34.1012V19.6458H38.1124V20.4582C39.4183 19.6768 40.5657 19.2861 41.5514 19.2861C42.5371 19.2861 43.4606 19.4319 44.2069 19.7233C44.95 20.0148 45.5657 20.4768 46.0477 21.1062C46.5296 21.7388 46.8934 22.5635 47.1329 23.5867C47.3723 24.61 47.4936 25.844 47.4936 27.2858C47.4936 28.7276 47.363 29.9462 47.1018 30.9415C46.8406 31.9337 46.4332 32.7368 45.8798 33.3476C45.3263 33.9584 44.6173 34.3956 43.7529 34.6561C42.8885 34.9165 41.853 35.0468 40.6466 35.0468C39.9843 35.0468 39.2691 34.9879 38.5042 34.8669L38.1435 34.808V41.0031V41ZM40.7678 22.8922C40.0247 22.8922 39.2691 23.041 38.5042 23.3449L38.1435 23.4937V31.3756C39.0483 31.4965 39.7821 31.5554 40.345 31.5554C41.511 31.5554 42.3101 31.2144 42.7423 30.5322C43.1745 29.8501 43.3922 28.6873 43.3922 27.044C43.3922 24.2782 42.5184 22.8922 40.7678 22.8922Z" fill="white"/>
<path d="M62.6987 28.8795H53.8306C53.8492 29.8035 54.0918 30.4701 54.5551 30.8794C55.0184 31.2918 55.7025 31.4965 56.6073 31.4965C58.4792 31.4965 60.1458 31.4375 61.6135 31.3166L62.4593 31.2267L62.5183 34.2033C60.2453 34.7645 58.1527 35.0467 56.2435 35.0467C53.9705 35.0467 52.3225 34.4452 51.2964 33.2421C50.2703 32.0391 49.7572 30.0826 49.7572 27.3757C49.7572 21.9805 51.9805 19.283 56.4238 19.283C60.8672 19.283 63.0003 21.5495 63.0003 26.0796L62.6987 28.8764V28.8795ZM53.7995 25.8129H59.0171C59.0171 24.6099 58.8305 23.7727 58.4605 23.3014C58.0874 22.8301 57.4189 22.5945 56.4549 22.5945C55.491 22.5945 54.81 22.8394 54.4182 23.3324C54.0265 23.8254 53.8212 24.6502 53.7995 25.8129Z" fill="white"/>
<path d="M69.9375 34.6839H65.8953V19.6457H69.9064V21.2395C71.6353 20.238 73.2429 19.5837 74.7323 19.283V23.3448C73.9083 23.5061 73.1496 23.6766 72.4562 23.8564C71.7628 24.0363 71.1253 24.2161 70.5408 24.399L69.9375 24.6099V34.687V34.6839Z" fill="white"/>
<path d="M77.478 34.684V14.2321H84.5675L88.1869 29.1524L91.8063 14.2321H98.8958V34.6871H94.7322V18.8644H94.2783L90.2671 33.7848H86.1035L82.0924 18.8644H81.6384V34.6871H77.4749L77.478 34.684Z" fill="#997D36"/>
<path d="M115.183 28.8795H106.315C106.333 29.8035 106.576 30.4701 107.039 30.8794C107.503 31.2918 108.187 31.4965 109.092 31.4965C110.96 31.4965 112.63 31.4375 114.098 31.3166L114.944 31.2267L115.003 34.2033C112.73 34.7645 110.637 35.0467 108.728 35.0467C106.455 35.0467 104.807 34.4452 103.781 33.2421C102.755 32.0391 102.241 30.0826 102.241 27.3757C102.241 21.9805 104.465 19.283 108.908 19.283C113.351 19.283 115.485 21.5495 115.485 26.0796L115.183 28.8764V28.8795ZM106.284 25.8129H111.501C111.501 24.6099 111.315 23.7727 110.945 23.3014C110.572 22.8301 109.903 22.5945 108.939 22.5945C107.975 22.5945 107.294 22.8394 106.903 23.3324C106.511 23.8254 106.305 24.6502 106.284 25.8129Z" fill="#997D36"/>
<path d="M122.422 23.4348V34.684H118.38V19.6458H122.391V20.4892C123.737 19.6861 124.993 19.2861 126.162 19.2861C127.167 19.2861 128.006 19.4319 128.681 19.7233C129.356 20.0148 129.897 20.4613 130.31 21.0628C130.724 21.6643 131.019 22.4178 131.2 23.3201C131.38 24.2224 131.47 25.2952 131.47 26.5386V34.6902H127.428V26.6595C127.428 25.3758 127.276 24.4301 126.974 23.8162C126.672 23.2054 126.069 22.8984 125.164 22.8984C124.359 22.8984 123.566 23.0379 122.782 23.3201L122.422 23.441V23.4348Z" fill="#997D36"/>
<path d="M143.958 30.8949V19.6457H148V34.6839H143.989V33.8405C142.562 34.6436 141.305 35.0436 140.217 35.0436C139.129 35.0436 138.308 34.9041 137.624 34.6219C136.94 34.3397 136.396 33.8995 135.994 33.2979C135.593 32.6964 135.31 31.9181 135.149 30.9662C134.987 30.0143 134.906 28.8671 134.906 27.5214V19.6395H138.948V27.5803C138.948 28.3214 138.973 28.9384 139.023 29.4314C139.073 29.9244 139.172 30.3182 139.325 30.619C139.477 30.9197 139.685 31.1306 139.959 31.2515C140.229 31.3724 140.596 31.4313 141.06 31.4313C141.924 31.4313 142.757 31.2918 143.563 31.0096L143.955 30.8887L143.958 30.8949Z" fill="#997D36"/>
<path d="M15.5285 30.8051H11.6106V34.532H15.5285V30.8051Z" fill="white"/>
</g>
<defs>
<clipPath id="clip0_13_1319">
<rect width="148" height="41" fill="white"/>
</clipPath>
</defs>
</svg>
