<svg width="262" height="179" viewBox="0 0 262 179" fill="none" xmlns="http://www.w3.org/2000/svg">
<g clip-path="url(#clip0_1_149)">
<path d="M127.206 1.78441e-06V1.35818C127.206 8.17796 127.163 14.9977 127.25 21.8175C127.272 23.195 126.738 24.1293 125.68 25.0444C119.412 30.5253 113.187 36.035 106.952 41.5544C105.229 43.0764 103.54 44.6368 101.817 46.1684C101.316 46.6115 100.76 47.016 99.8879 47.7096C99.8879 46.756 99.8879 46.1395 99.8879 45.5326C99.8879 38.8284 99.8879 32.1339 99.8879 25.4297C99.8879 23.7633 99.8879 23.7729 98.0674 23.7729C90.3711 23.7825 82.6639 23.7922 74.9677 23.7922C74.5316 23.7922 74.0956 23.7536 73.3761 23.7247C73.7576 23.2624 73.943 22.9638 74.2046 22.7326C82.4459 15.4986 90.6872 8.25502 98.9722 1.0692C99.5935 0.529787 100.596 0.0481641 101.425 0.0385316C109.939 -0.038528 118.442 -0.00963067 127.195 -0.00963067L127.206 1.78441e-06Z" fill="#7E1010"/>
<path d="M0 47.8059C4.20787 47.8059 8.28493 47.8348 12.3511 47.7866C13.4957 47.777 13.4303 48.355 13.4303 49.0196C13.4303 53.884 13.4194 58.7484 13.4194 63.6128C13.4194 65.886 13.463 68.1593 13.4194 70.4326C13.3976 71.4054 13.7464 71.7618 14.8911 71.7522C18.87 71.704 22.849 71.7329 26.9369 71.7329V83.8987C26.5227 83.8987 26.0539 83.8987 25.5852 83.8987C22.0096 83.8987 18.434 83.9373 14.8584 83.8795C13.7028 83.8602 13.4085 84.2166 13.4194 85.1895C13.463 92.3657 13.4521 99.5419 13.463 106.728C13.463 107.036 13.463 107.354 13.463 107.758H0V47.8155V47.8059Z" fill="#877683"/>
<path d="M40.727 84.9005C40.727 83.9373 40.4545 83.5809 39.2881 83.6098C36.1267 83.6868 32.9544 83.6387 29.7822 83.6387C29.3025 83.6387 28.8229 83.6001 27.8854 83.5616C28.4631 82.9066 28.7357 82.502 29.0954 82.1841C32.7364 78.9669 36.3883 75.7593 40.0729 72.571C40.4218 72.2627 40.9777 71.9834 41.4465 71.9641C45.4254 71.8582 49.4044 71.8293 53.3833 71.7522C54.1573 71.7329 54.4299 72.0412 54.4299 72.6769C54.419 76.1446 54.4953 79.6219 54.3317 83.08C54.299 83.7639 53.4705 84.5152 52.8274 85.0835C49.1537 88.3297 45.4254 91.5276 41.7299 94.7545C41.5119 94.9472 41.1195 95.1687 40.727 95.5733" fill="#7E1010"/>
<path d="M40.7596 47.8059C45.0002 47.8059 49.11 47.8348 53.2306 47.7866C54.2772 47.777 54.5279 48.0852 54.517 48.9522C54.4734 52.2176 54.5388 55.4926 54.4843 58.758C54.4843 59.2493 54.2118 59.8657 53.8193 60.2125C49.6659 63.8825 45.469 67.5139 41.2829 71.155C41.1957 71.232 41.054 71.2513 40.7596 71.3573V47.8059Z" fill="#877683"/>
<path d="M61.8208 61.0312H75.7744L85.4001 97.0952H87.8311L97.4569 61.0312H111.421L92.813 127.38H78.9575L84.7788 107.758H74.8369L61.8317 61.0409L61.8208 61.0312Z" fill="#877683"/>
<path d="M133.725 127.37H119.554V61.0312H133.616V63.555C138.195 61.1276 142.217 59.9139 145.673 59.9139C149.129 59.9139 152.366 60.3666 154.983 61.2721C157.588 62.1775 159.747 63.6127 161.436 65.5681C163.126 67.5332 164.401 70.0954 165.241 73.2741C166.08 76.4528 166.505 80.2865 166.505 84.7656C166.505 89.2447 166.047 93.0303 165.132 96.1223C164.216 99.2047 162.788 101.699 160.848 103.597C158.907 105.495 156.422 106.853 153.391 107.662C150.361 108.471 146.73 108.876 142.501 108.876C140.179 108.876 137.672 108.693 134.99 108.317L133.725 108.134V127.38V127.37ZM142.926 71.1164C140.321 71.1164 137.672 71.5788 134.99 72.5228L133.725 72.9851V97.4708C136.898 97.8465 139.47 98.0295 141.443 98.0295C145.531 98.0295 148.333 96.97 149.848 94.8508C151.363 92.7317 152.127 89.1195 152.127 84.0143C152.127 75.4221 149.063 71.1164 142.926 71.1164Z" fill="#877683"/>
<path d="M219.812 89.7167H188.722C188.787 92.5872 189.638 94.6582 191.262 95.9297C192.886 97.2108 195.285 97.8465 198.457 97.8465C205.019 97.8465 210.862 97.6635 216.008 97.2878L218.973 97.0085L219.18 106.256C211.211 107.999 203.875 108.876 197.181 108.876C189.213 108.876 183.435 107.007 179.838 103.27C176.24 99.5322 174.441 93.4541 174.441 85.045C174.441 68.2845 182.236 59.9043 197.814 59.9043C213.391 59.9043 220.87 66.9456 220.87 81.0186L219.812 89.7071V89.7167ZM188.613 80.1902H206.905C206.905 76.4528 206.251 73.8521 204.954 72.3879C203.646 70.9238 201.302 70.1917 197.923 70.1917C194.543 70.1917 192.156 70.9527 190.782 72.4843C189.409 74.0158 188.689 76.5781 188.613 80.1902Z" fill="#877683"/>
<path d="M245.19 107.749H231.019V61.0313H245.081V65.9823C251.142 62.8711 256.778 60.8386 262 59.9043V72.5228C259.111 73.0237 256.451 73.5535 254.02 74.1121C251.589 74.6708 249.355 75.2295 247.305 75.7978L245.19 76.4528V107.758V107.749Z" fill="#877683"/>
<path d="M0 177.902V115.464H24.4187L36.8897 161.007L49.3607 115.464H73.7795V177.902H59.4444V129.605H57.8855L44.0627 175.147H29.7276L15.9049 129.605H14.346V177.902H0Z" fill="#7E1010"/>
<path d="M129.899 160.178H99.3429C99.4083 162.991 100.248 165.033 101.839 166.285C103.431 167.537 105.785 168.163 108.903 168.163C115.346 168.163 121.091 167.98 126.149 167.614L129.06 167.335L129.267 176.428C121.44 178.143 114.234 179 107.65 179C99.8225 179 94.143 177.16 90.611 173.49C87.079 169.82 85.313 163.848 85.313 155.583C85.313 139.122 92.9656 130.886 108.282 130.886C123.598 130.886 130.935 137.802 130.935 151.634L129.899 160.178ZM99.2448 150.815H117.221C117.221 147.145 116.578 144.583 115.302 143.148C114.016 141.713 111.716 140.99 108.391 140.99C105.066 140.99 102.722 141.742 101.381 143.244C100.03 144.747 99.3211 147.271 99.2557 150.815H99.2448Z" fill="#7E1010"/>
<path d="M154.83 143.553V177.892H140.909V131.984H154.732V134.556C159.376 132.109 163.704 130.886 167.726 130.886C171.193 130.886 174.082 131.329 176.404 132.215C178.726 133.101 180.59 134.469 182.018 136.299C183.435 138.139 184.46 140.432 185.081 143.187C185.702 145.941 186.018 149.216 186.018 153.012V177.892H172.098V153.378C172.098 149.457 171.574 146.568 170.539 144.699C169.503 142.83 167.421 141.896 164.303 141.896C161.534 141.896 158.798 142.329 156.095 143.177L154.852 143.543L154.83 143.553Z" fill="#7E1010"/>
<path d="M229.035 166.324V131.984H242.956V177.892H229.133V175.32C224.216 177.767 219.889 178.99 216.139 178.99C212.389 178.99 209.554 178.557 207.2 177.709C204.845 176.852 202.97 175.503 201.585 173.673C200.201 171.833 199.231 169.464 198.675 166.555C198.119 163.646 197.846 160.14 197.846 156.046V131.984H211.767V156.229C211.767 158.493 211.854 160.38 212.029 161.873C212.203 163.376 212.552 164.58 213.064 165.505C213.588 166.42 214.307 167.065 215.245 167.431C216.182 167.797 217.447 167.98 219.038 167.98C222.014 167.98 224.892 167.557 227.661 166.699L229.013 166.333L229.035 166.324Z" fill="#7E1010"/>
<path d="M54.4407 95.6985H40.7052V107.277H54.4407V95.6985Z" fill="#877683"/>
</g>
<defs>
<clipPath id="clip0_1_149">
<rect width="262" height="179" fill="white"/>
</clipPath>
</defs>
</svg>
