<?xml version="1.0" encoding="UTF-8"?>
<svg version="1.1" xmlns="http://www.w3.org/2000/svg" width="390" height="172">
<path d="M0 0 C128.7 0 257.4 0 390 0 C390 56.76 390 113.52 390 172 C261.3 172 132.6 172 0 172 C0 115.24 0 58.48 0 0 Z " fill="#2B112A" transform="translate(0,0)"/>
<path d="M0 0 C-1.26953125 1.49739583 -2.5390625 2.99479167 -3.80859375 4.4921875 C-6.88898151 8.39064545 -6.09761791 12.13621496 -5.72265625 16.89453125 C-5.02428317 21.85704475 -3.19939706 26.39515641 -1.4375 31.0625 C1.5666556 39.11851717 4.1684581 46.65440682 1.2578125 55.171875 C-0.67964856 59.04679712 -2.98592333 61.44910674 -7 63 C-12.09163347 63.80819579 -12.09163347 63.80819579 -15 63 C-18.71327839 60.01305519 -20.98160743 56.26314692 -23 52 C-23.66 54.31 -24.32 56.62 -25 59 C-26.625 59.75 -26.625 59.75 -29 60 C-32.25 58.0625 -32.25 58.0625 -35 56 C-35 56.66 -35 57.32 -35 58 C-35.04447266 59.39992188 -35.04447266 59.39992188 -35.08984375 60.828125 C-34.91870847 64.67208667 -34.5422137 67.4589395 -33 71 C-28.33049224 74.15635081 -23.39627309 75.53665115 -18 77 C-17.05125 77.31195313 -16.1025 77.62390625 -15.125 77.9453125 C8.02126929 85.2138056 35.35798732 83.76704477 57.1328125 72.93945312 C60.28167693 71.23631257 63.32892097 69.42170857 66.375 67.5390625 C69 66 69 66 71 66 C71 65.34 71 64.68 71 64 C71.66 64 72.32 64 73 64 C72.78041418 73.38230335 69.87180347 82.31392095 63 89 C48.76052291 99.5140325 32.55826158 100.71290211 15.47265625 98.70263672 C-3.35473534 95.8686108 -21.07235414 88.44189593 -38 80 C-38.77730469 80.63421875 -39.55460937 81.2684375 -40.35546875 81.921875 C-44.59984125 85.25718692 -48.26954897 86.54107427 -53.75 86.375 C-59.79623477 85.36729421 -65.33038651 82.44694207 -69 77.5 C-69.6985794 76.35215751 -70.36952451 75.18661544 -71 74 C-71.433125 73.195625 -71.86625 72.39125 -72.3125 71.5625 C-73.33731036 67.74275229 -73.44175122 64.97576094 -73 61 C-70.90592263 58.29796469 -69.37138761 57.2834561 -66.015625 56.58984375 C-59.3944692 56.13199787 -54.61780674 58.79814124 -49 62 C-47.68 62.66 -46.36 63.32 -45 64 C-44.01 60.37 -43.02 56.74 -42 53 C-43.835625 53.0825 -45.67125 53.165 -47.5625 53.25 C-53.36153976 53.25 -56.43856051 52.56982221 -61 49 C-64.48966031 43.83624589 -63.57794562 36.93082289 -63 31 C-61.70398432 27.58878891 -59.56613923 25.56613923 -57 23 C-51.18364078 22.88367282 -47.98446401 24.89971138 -43.7890625 28.8359375 C-40.78134535 32.47409317 -39.47597533 36.572074 -38 41 C-36.04160116 45.68312766 -34.60432212 47.76005951 -30 50 C-29.99742187 49.32453125 -29.99484375 48.6490625 -29.9921875 47.953125 C-29.67465261 40.62865357 -29.67465261 40.62865357 -26.25 37.4375 C-23.39984426 36.17685419 -21.03641058 35.54221617 -18 35 C-17.76925781 35.79664063 -17.53851563 36.59328125 -17.30078125 37.4140625 C-15.36984413 43.6877001 -13.66541399 48.33458601 -9 53 C-8.0317908 42.15605693 -12.41073151 32.00571648 -16.3125 22.0625 C-18.15811695 17.17050328 -18.34093562 13.19926819 -18 8 C-17.34 8.33 -16.68 8.66 -16 9 C-15.38125 7.6078125 -15.38125 7.6078125 -14.75 6.1875 C-11.03144654 -0.58557952 -7.17985863 -0.41422261 0 0 Z " fill="#E7433F" transform="translate(185,36)"/>
<path d="M0 0 C0.83917969 -0.00773437 1.67835938 -0.01546875 2.54296875 -0.0234375 C4.8125 0.375 4.8125 0.375 7.8125 3.375 C4.8425 3.375 1.8725 3.375 -1.1875 3.375 C-0.51203125 3.46136719 0.1634375 3.54773438 0.859375 3.63671875 C8.2189883 4.7959642 8.2189883 4.7959642 11.375 7.875 C13.45116933 11.48572927 13.92839311 13.33533722 13.875 17.5 C13.86597656 18.41007812 13.85695313 19.32015625 13.84765625 20.2578125 C13.83605469 20.95648438 13.82445312 21.65515625 13.8125 22.375 C13.5134375 21.77042969 13.214375 21.16585937 12.90625 20.54296875 C10.69906267 15.6799443 10.69906267 15.6799443 6.8125 12.375 C-3.91641596 10.88014222 -10.86653232 15.27524101 -19.375 21.25 C-20.303125 21.95125 -21.23125 22.6525 -22.1875 23.375 C-20.88287008 26.88507574 -19.32431102 29.90927289 -17.3125 33.0625 C-12.8102064 40.48907743 -9.046544 47.53259099 -10.1875 56.375 C-12.44807138 63.19481366 -16.26218085 67.01980851 -22.375 70.6875 C-24.1875 71.375 -24.1875 71.375 -27.1875 71.375 C-27.26097656 70.48748047 -27.26097656 70.48748047 -27.3359375 69.58203125 C-27.44808594 68.39673828 -27.44808594 68.39673828 -27.5625 67.1875 C-27.63210938 66.41019531 -27.70171875 65.63289063 -27.7734375 64.83203125 C-28.22730682 62.13878783 -29.09663635 59.87157006 -30.1875 57.375 C-30.36925781 58.51388672 -30.36925781 58.51388672 -30.5546875 59.67578125 C-30.72226562 60.66964844 -30.88984375 61.66351563 -31.0625 62.6875 C-31.22492188 63.67363281 -31.38734375 64.65976563 -31.5546875 65.67578125 C-32.1875 68.375 -32.1875 68.375 -34.1875 71.375 C-39.82810589 70.97209958 -42.22221123 69.15585674 -46.1875 65.375 C-46.5175 64.715 -46.8475 64.055 -47.1875 63.375 C-47.49042969 64.08527344 -47.79335938 64.79554687 -48.10546875 65.52734375 C-48.52441406 66.44644531 -48.94335938 67.36554688 -49.375 68.3125 C-49.78105469 69.22902344 -50.18710937 70.14554687 -50.60546875 71.08984375 C-52.1875 73.375 -52.1875 73.375 -54.67578125 74.31640625 C-57.1875 74.375 -57.1875 74.375 -60.1875 72.375 C-68.42775866 70.47856573 -75.41851465 74.30584293 -82.6484375 77.74609375 C-88.75595739 80.55717079 -94.49616664 81.19755341 -101.1875 80.375 C-106.46248641 78.29775862 -109.70549457 75.50941721 -112.1875 70.375 C-113.42286837 61.98339861 -112.12077037 53.8970207 -108.1875 46.375 C-107.1975 45.88 -107.1975 45.88 -106.1875 45.375 C-106.22230469 46.92960937 -106.22230469 46.92960937 -106.2578125 48.515625 C-106.27657667 49.88540944 -106.29477618 51.2552017 -106.3125 52.625 C-106.32925781 53.30691406 -106.34601563 53.98882812 -106.36328125 54.69140625 C-106.39948521 58.42041386 -106.3613172 61.26741252 -104.1875 64.375 C-98.64694813 68.56785006 -91.80229695 68.22363374 -85.1875 67.375 C-82.28583643 66.28681772 -82.28583643 66.28681772 -79.5 64.875 C-71.6866302 61.14182869 -63.6344525 61.95265238 -55.1875 62.375 C-54.5275 61.055 -53.8675 59.735 -53.1875 58.375 C-53.8165625 58.43300781 -54.445625 58.49101563 -55.09375 58.55078125 C-61.00731301 58.86249014 -64.65293393 58.13975288 -69.59375 54.859375 C-72.47418575 52.17661621 -73.11803018 50.04546456 -73.5234375 46.1328125 C-73.65270619 34.11082474 -73.65270619 34.11082474 -69.1875 29.375 C-68.1875 28.375 -68.1875 28.375 -65.93359375 28.12890625 C-60.01952462 28.65890107 -55.06717925 33.22240208 -51.27734375 37.5625 C-47.87219865 42.38157513 -46.40770274 46.64943332 -45.1875 52.375 C-43.50310329 56.32967054 -42.79041973 57.97305352 -39.1875 60.375 C-39.17332031 59.63894531 -39.15914063 58.90289062 -39.14453125 58.14453125 C-38.75327086 50.13955522 -38.75327086 50.13955522 -35.875 46.25 C-33.41296137 44.53229863 -32.03072127 43.96910594 -29.1875 43.375 C-28.22394756 44.45369393 -27.26688583 45.53818743 -26.3125 46.625 C-25.77882813 47.22828125 -25.24515625 47.8315625 -24.6953125 48.453125 C-21.93884519 51.96654966 -21.1875 53.81346308 -21.1875 58.375 C-20.5275 58.375 -19.8675 58.375 -19.1875 58.375 C-18.40268058 48.95716701 -21.31077723 40.88285101 -27.0625 33.375 C-29.1875 30.375 -29.1875 30.375 -28.8203125 28.1875 C-28.61148438 27.589375 -28.40265625 26.99125 -28.1875 26.375 C-29.3425 26.87 -30.4975 27.365 -31.6875 27.875 C-36.77658651 29.73860914 -41.13787279 30.59711406 -46.29296875 28.53125 C-51.39541298 25.69762244 -54.98336461 21.83113841 -57.1875 16.375 C-56.8575 15.715 -56.5275 15.055 -56.1875 14.375 C-55.34703125 15.02339844 -54.5065625 15.67179687 -53.640625 16.33984375 C-48.11092311 20.00740394 -41.50570405 19.10783244 -35.1875 18.375 C-28.06241566 16.32898011 -22.06042676 11.32454998 -16.18334961 6.94189453 C-11.13298419 3.18986274 -6.52179344 -0.06066785 0 0 Z " fill="#E6433F" transform="translate(321.1875,22.625)"/>
<path d="M0 0 C0.66 0 1.32 0 2 0 C1.78041418 9.38230335 -1.12819653 18.31392095 -8 25 C-22.23947709 35.5140325 -38.44173842 36.71290211 -55.52734375 34.70263672 C-74.0708296 31.9113462 -91.57513034 24.83180841 -108 16 C-107.45276317 12.62537285 -106.9451 10.91765 -105 8 C-100.8422008 8.70737605 -97.03671323 9.97533045 -93.0625 11.375 C-67.5602368 20.10459664 -41.03158864 20.6673763 -16 10 C-12.07708405 8.04931926 -8.35074916 5.84178247 -4.625 3.5390625 C-2 2 -2 2 0 2 C0 1.34 0 0.68 0 0 Z " fill="#E94642" transform="translate(256,100)"/>
<path d="M0 0 C7.66340172 2.32638981 13.19459359 6.2152011 17.5 13.0625 C18.71133418 20.70154437 17.50714004 26.55089743 13.5 33.0625 C8.04224196 32.83973437 5.07982162 31.61446848 1.07421875 27.87890625 C-2.42365763 23.84289505 -4.32905255 19.22844462 -5.5 14.0625 C-5.761527 18.76998604 -5.53992462 22.34454968 -4 26.8125 C-1.76076071 33.72215268 -1.37844312 40.69782937 -3.6875 47.625 C-5.86338444 50.55118942 -7.07265865 51.74990118 -10.5 53.0625 C-17.95993029 54.13768568 -23.80384106 52.25386086 -30.5 49.0625 C-29.10692444 46.27634887 -27.09701518 46.03912389 -24.33984375 44.89453125 C-19.1751194 42.55889158 -16.73677363 39.28995466 -14.3449707 34.3605957 C-12.90944559 30.45634898 -12.94078909 26.62123457 -12.9375 22.5 C-12.89510922 14.87571476 -12.27497347 8.39786524 -6.75 2.5625 C-4.18724713 0.18370711 -3.72114547 0.06644903 0 0 Z " fill="#E7433F" transform="translate(86.5,59.9375)"/>
<path d="M0 0 C0.928125 0.33 1.85625 0.66 2.8125 1 C5.92029291 2.14967004 5.92029291 2.14967004 9 2 C15.57987146 11.8698072 18.68848635 24.24473304 18 36 C12.81312893 32.68616571 10.94680755 28.63600787 9 23 C8.25 19.4375 8.25 19.4375 8 17 C4.34930119 18.27976527 1.10100381 19.66397892 -2 22 C-3.43291334 25.30478253 -3.84696166 28.41751165 -4 32 C-9.06505269 30.35728021 -10.87493631 28.19145842 -13.2734375 23.51953125 C-15.69801089 17.56127112 -16.49406826 13.89722625 -13.9921875 7.875 C-13 6 -13 6 -11 3 C-7.59687262 4.05875074 -4.98646769 5.00902154 -2 7 C-1.855625 6.030625 -1.71125 5.06125 -1.5625 4.0625 C-1 1 -1 1 0 0 Z " fill="#35142B" transform="translate(159,54)"/>
<path d="M0 0 C1.22589844 0.01353516 1.22589844 0.01353516 2.4765625 0.02734375 C3.41628906 0.04474609 3.41628906 0.04474609 4.375 0.0625 C3.611875 0.784375 2.84875 1.50625 2.0625 2.25 C-2.67940552 7.21245927 -4.32592783 10.63336532 -4.1953125 17.5 C-3.29362677 23.13244786 -1.24327318 28.35041655 0.88427734 33.62915039 C3.60851984 40.63800939 4.73268958 47.20380331 2.1875 54.4375 C-0.84304426 58.82656409 -3.14282909 60.77092539 -8.4375 61.8125 C-9.489375 61.895 -10.54125 61.9775 -11.625 62.0625 C-9.625 57.0625 -9.625 57.0625 -8.58984375 54.703125 C-5.43213739 46.06098128 -8.02222089 38.27686464 -11.125 30.0625 C-13.86203074 22.80209461 -16.38122054 15.91458747 -14.625 8.0625 C-13.0859375 5.24609375 -13.0859375 5.24609375 -11.625 3.0625 C-11.295 4.0525 -10.965 5.0425 -10.625 6.0625 C-10.00625 5.258125 -9.3875 4.45375 -8.75 3.625 C-5.82349057 0.09597392 -4.40502309 -0.0629289 0 0 Z " fill="#E6433F" transform="translate(197.625,36.9375)"/>
<path d="M0 0 C0 0.66 0 1.32 0 2 C-0.763125 2.4125 -1.52625 2.825 -2.3125 3.25 C-5.79000361 5.51442095 -6.64464777 7.07661198 -8 11 C-8.7906819 18.25666687 -7.3398067 23.76504586 -4.5 30.375 C-1.33403808 38.35525901 1.06006995 45.66044771 -1.70703125 54.17578125 C-3.82320207 58.52518766 -6.55113514 60.39840865 -11 62 C-14.375 62.6875 -14.375 62.6875 -17 63 C-16.6390625 62.42894531 -16.278125 61.85789063 -15.90625 61.26953125 C-11.49820666 53.56769998 -10.25478249 46.47937077 -12.59472656 37.79199219 C-14.36814119 32.09462919 -16.328668 26.342664 -19 21 C-19.17431846 18.87960174 -19.26709071 16.75206692 -19.3125 14.625 C-19.34988281 13.48289062 -19.38726562 12.34078125 -19.42578125 11.1640625 C-18.92206337 7.42083791 -17.89537207 6.31858198 -15 4 C-15 4.99 -15 5.98 -15 7 C-14.4225 6.21625 -13.845 5.4325 -13.25 4.625 C-9.15264029 -0.15525299 -6.21630417 -0.23908862 0 0 Z " fill="#E6433F" transform="translate(119,34)"/>
<path d="M0 0 C4.95816085 1.87993942 9.40058469 4.04064316 13 8 C6.98145114 12.24034124 3.38833447 13.50090403 -4 13 C-7.14830913 11.96537422 -10.03880013 10.48059993 -13 9 C-13.33 9.99 -13.66 10.98 -14 12 C-14.60194175 4.77669903 -14.60194175 4.77669903 -12.0625 1.5 C-7.83994188 -0.56819173 -4.61544488 -0.85767322 0 0 Z " fill="#E0413E" transform="translate(126,93)"/>
<path d="M0 0 C0.33 1.65 0.66 3.3 1 5 C-2.32534757 6.10844919 -4.62182575 5.84454356 -8 5 C-8 5.66 -8 6.32 -8 7 C-3.545 7.99 -3.545 7.99 1 9 C-1.00466037 13.00932073 -1.27976774 13.54128648 -5 15.3125 C-5.70125 15.65925781 -6.4025 16.00601563 -7.125 16.36328125 C-8.053125 16.67845703 -8.053125 16.67845703 -9 17 C-9.66 16.67 -10.32 16.34 -11 16 C-9.68 14.35 -8.36 12.7 -7 11 C-8.32 10.34 -9.64 9.68 -11 9 C-11.3125 6.75 -11.3125 6.75 -11 4 C-7.52419392 0.21750515 -5.05426729 -0.4701644 0 0 Z " fill="#E0423F" transform="translate(104,19)"/>
<path d="M0 0 C2.62161894 0.35427283 4.54067389 0.67429603 6.71875 2.21875 C8 4 8 4 7.85546875 6.48046875 C7.63503906 7.37378906 7.41460937 8.26710938 7.1875 9.1875 C6.97480469 10.08855469 6.76210938 10.98960938 6.54296875 11.91796875 C6.27419922 12.94857422 6.27419922 12.94857422 6 14 C5.236875 13.690625 4.47375 13.38125 3.6875 13.0625 C1.81210323 12.32106407 -0.08684652 11.63771783 -2 11 C-1.85892253 9.54119891 -1.71197585 8.08296449 -1.5625 6.625 C-1.48128906 5.81289062 -1.40007812 5.00078125 -1.31640625 4.1640625 C-1 2 -1 2 0 0 Z " fill="#DF413F" transform="translate(284,98)"/>
<path d="M0 0 C5 1 5 1 6.875 2.125 C8.71081192 5.18468653 7.77862197 7.64593611 7 11 C6.01 12.485 6.01 12.485 5 14 C1.535 12.02 1.535 12.02 -2 10 C-1.34 6.7 -0.68 3.4 0 0 Z " fill="#E0413E" transform="translate(241,39)"/>
<path d="M0 0 C2.62161894 0.35427283 4.54067389 0.67429603 6.71875 2.21875 C8 4 8 4 7.85546875 6.48046875 C7.63503906 7.37378906 7.41460937 8.26710938 7.1875 9.1875 C6.97480469 10.08855469 6.76210938 10.98960938 6.54296875 11.91796875 C6.27419922 12.94857422 6.27419922 12.94857422 6 14 C3.36 13.01 0.72 12.02 -2 11 C-1.85892253 9.54119891 -1.71197585 8.08296449 -1.5625 6.625 C-1.48128906 5.81289062 -1.40007812 5.00078125 -1.31640625 4.1640625 C-1 2 -1 2 0 0 Z " fill="#E1423F" transform="translate(272,98)"/>
<path d="M0 0 C1.98 0.66 3.96 1.32 6 2 C6 2.99 6 3.98 6 5 C6.061875 5.99 6.12375 6.98 6.1875 8 C6 11 6 11 4.5 12.875 C3.7575 13.431875 3.7575 13.431875 3 14 C1.02 12.68 -0.96 11.36 -3 10 C-2.25 3.375 -2.25 3.375 0 0 Z " fill="#E1413F" transform="translate(148,57)"/>
<path d="M0 0 C2.02045442 0.60183749 4.02111039 1.27306096 6 2 C7.3609623 4.7219246 6.70366248 6.1831957 6.0625 9.125 C5.86785156 10.03507812 5.67320312 10.94515625 5.47265625 11.8828125 C5.31667969 12.58148438 5.16070312 13.28015625 5 14 C2.33333333 12.66666667 -0.33333333 11.33333333 -3 10 C-2.69201674 8.51988629 -2.378482 7.04092675 -2.0625 5.5625 C-1.88847656 4.73878906 -1.71445313 3.91507813 -1.53515625 3.06640625 C-1 1 -1 1 0 0 Z " fill="#E1423F" transform="translate(159,54)"/>
<path d="M0 0 C5.35425582 0.01713362 7.87101464 1.96735289 11.875 5.375 C8.11671538 7.88052308 6.33848506 7.74695709 1.875 7.375 C-0.58946682 6.54713056 -2.78072814 5.52321479 -5.125 4.375 C-5.125 -0.05728032 -4.05750411 0.17880527 0 0 Z " fill="#36132A" transform="translate(120.125,98.625)"/>
<path d="M0 0 C0.60585937 0.12117188 1.21171875 0.24234375 1.8359375 0.3671875 C3.09277344 0.61855469 3.09277344 0.61855469 4.375 0.875 C7.21354167 1.44270833 10.05208333 2.01041667 12.890625 2.578125 C14.24414062 2.84882812 14.24414062 2.84882812 15.625 3.125 C17.8125 3.5625 17.8125 3.5625 20 4 C20 4.99 20 5.98 20 7 C13.57533263 9.05589356 8.4984137 8.13436342 2.6015625 5.265625 C0.58678974 3.67346311 0.3665163 2.49231085 0 0 Z " fill="#EF524E" transform="translate(120,112)"/>
<path d="M0 0 C2.86724686 0.57344937 3.8614515 0.8614515 6 3 C6.33 2.34 6.66 1.68 7 1 C7.66 1.33 8.32 1.66 9 2 C8.51171875 8.0546875 8.51171875 8.0546875 8 10 C7.01 10.66 6.02 11.32 5 12 C4.566875 11.05125 4.13375 10.1025 3.6875 9.125 C2.20697799 5.79958063 2.20697799 5.79958063 -1 4 C-0.67 2.68 -0.34 1.36 0 0 Z " fill="#DC8542" transform="translate(224,58)"/>
<path d="M0 0 C2.51236985 2.40313638 3.95013095 3.78319518 4.09765625 7.3828125 C4.08605469 8.28773437 4.07445313 9.19265625 4.0625 10.125 C4.05347656 11.03507812 4.04445313 11.94515625 4.03515625 12.8828125 C4.02355469 13.58148438 4.01195313 14.28015625 4 15 C3.34 15 2.68 15 2 15 C-0.02558881 11.65060119 -0.21738987 9.13037449 -0.125 5.25 C-0.09792969 3.77273437 -0.09792969 3.77273437 -0.0703125 2.265625 C-0.04710938 1.51796875 -0.02390625 0.7703125 0 0 Z " fill="#3C162B" transform="translate(90,68)"/>
<path d="M0 0 C-0.5859375 2.41796875 -0.5859375 2.41796875 -2 5 C-5.0390625 5.92578125 -5.0390625 5.92578125 -8.625 6.3125 C-9.81351563 6.45300781 -11.00203125 6.59351562 -12.2265625 6.73828125 C-13.14179688 6.82464844 -14.05703125 6.91101563 -15 7 C-12.29954282 4.01593316 -10.23111463 2.4107034 -6.375 1.25 C-5.59898437 1.00765625 -4.82296875 0.7653125 -4.0234375 0.515625 C-2 0 -2 0 0 0 Z " fill="#D48041" transform="translate(238,72)"/>
<path d="M0 0 C7.80251346 4.12208259 7.80251346 4.12208259 10 8 C10 8.66 10 9.32 10 10 C6.01381348 8.63330748 3.03561398 6.94888215 0 4 C0 2.68 0 1.36 0 0 Z " fill="#45172C" transform="translate(131,72)"/>
<path d="M0 0 C-0.33 1.32 -0.66 2.64 -1 4 C-2.78910903 4.52955234 -4.58139148 5.0483937 -6.375 5.5625 C-7.87160156 5.99755859 -7.87160156 5.99755859 -9.3984375 6.44140625 C-12 7 -12 7 -14 6 C-10.292996 2.7563715 -5.02493834 0 0 0 Z " fill="#D98341" transform="translate(135,47)"/>
<path d="M0 0 C2.31 0 4.62 0 7 0 C6.43628586 3.26954202 5.50037734 4.82575883 3 7 C2.01 6.67 1.02 6.34 0 6 C0.66 5.67 1.32 5.34 2 5 C0.68 4.67 -0.64 4.34 -2 4 C-1.34 2.68 -0.68 1.36 0 0 Z " fill="#C3753F" transform="translate(151,42)"/>
<path d="M0 0 C4.83766699 0.41465717 6.85646376 2.4198615 10 6 C10.33 6.66 10.66 7.32 11 8 C6.60357652 7.4975516 4.2051018 6.02704059 1 3 C0.67 2.01 0.34 1.02 0 0 Z " fill="#48192D" transform="translate(255,65)"/>
<path d="M0 0 C2.875 -0.125 2.875 -0.125 6 0 C6.66 0.66 7.32 1.32 8 2 C4.67692308 6.8 4.67692308 6.8 1.25 7.8125 C0.5075 7.874375 -0.235 7.93625 -1 8 C0.375 6.5 0.375 6.5 2 5 C2.66 5 3.32 5 4 5 C4 4.34 4 3.68 4 3 C2.35 3 0.7 3 -1 3 C-0.67 2.01 -0.34 1.02 0 0 Z " fill="#C7783F" transform="translate(279,57)"/>
<path d="M0 0 C3.33333333 0.66666667 6.66666667 1.33333333 10 2 C11.40185547 2.28037109 11.40185547 2.28037109 12.83203125 2.56640625 C13.54746094 2.70949219 14.26289063 2.85257812 15 3 C13 5 13 5 9.75 5.3125 C5.78260112 4.98188343 3.40659929 3.9941069 0 2 C0 1.34 0 0.68 0 0 Z " fill="#F0605B" transform="translate(123,115)"/>
<path d="M0 0 C-2.51830747 3.12270126 -3.7261549 3.94523098 -7.75 4.75 C-9.35875 4.87375 -9.35875 4.87375 -11 5 C-4.36842105 -2.18421053 -4.36842105 -2.18421053 0 0 Z " fill="#F05954" transform="translate(81,106)"/>
<path d="M0 0 C3 1 3 1 4.1875 2.5625 C5.37040794 6.11122383 5.12443279 9.26701621 5 13 C2.05633121 8.58449682 0 5.38909875 0 0 Z " fill="#DE8742" transform="translate(200,49)"/>
<path d="M0 0 C0.66 0.33 1.32 0.66 2 1 C1.67 3.64 1.34 6.28 1 9 C0.01 8.01 -0.98 7.02 -2 6 C-1.34 4.02 -0.68 2.04 0 0 Z " fill="#A25F3B" transform="translate(231,59)"/>
</svg>
