<svg width="353" height="60" viewBox="0 0 353 60" fill="none" xmlns="http://www.w3.org/2000/svg">
<g filter="url(#filter0_d_10_922)">
<rect x="5" y="5" width="343" height="50" rx="4" fill="white"/>
<rect x="156" y="17" width="41" height="26" stroke="#C4C4C4"/>
<path d="M192.474 28.7701C192.441 27.9518 192.077 27.1788 191.46 26.6172C190.843 26.0556 190.023 25.7503 189.175 25.7669C188.162 25.7241 187.143 25.7669 186.13 25.7363C185.857 25.7363 185.762 25.8158 185.718 26.0788C185.37 28.293 184.996 30.501 184.629 32.7152C184.54 33.2534 184.458 33.7916 184.369 34.3421C184.43 34.3558 184.491 34.366 184.553 34.3727C185.579 34.3727 186.604 34.3727 187.624 34.3727C188.446 34.3884 189.258 34.1956 189.979 33.8135C190.701 33.4315 191.305 32.8735 191.734 32.1953C192.366 31.1641 192.626 29.9595 192.474 28.7701ZM189.688 31.4429C189.492 31.8491 189.174 32.189 188.775 32.4191C188.377 32.6491 187.916 32.7586 187.453 32.7335H186.82C186.927 32.0668 187.022 31.4368 187.13 30.8068C187.301 29.7609 187.485 28.7089 187.649 27.6569C187.649 27.455 187.744 27.3694 187.96 27.3878C188.073 27.3969 188.188 27.3969 188.301 27.3878C188.524 27.3557 188.751 27.3695 188.967 27.4282C189.183 27.487 189.384 27.5894 189.556 27.7287C189.729 27.868 189.869 28.041 189.967 28.2364C190.065 28.4317 190.119 28.6448 190.125 28.8618C190.282 29.7438 190.132 30.6511 189.701 31.4429" fill="#0E307D"/>
<path d="M182.976 26.1461C182.54 25.9415 182.067 25.821 181.583 25.7913C180.563 25.7302 179.538 25.7914 178.512 25.7485C178.246 25.7485 178.182 25.8464 178.151 26.0666C177.792 28.293 177.427 30.5173 177.055 32.7396C176.967 33.2717 176.884 33.81 176.789 34.3849C177.423 34.3849 178.056 34.3849 178.689 34.3849C178.923 34.3849 179.006 34.3054 179.037 34.0852C179.158 33.2717 179.31 32.4582 179.43 31.6386C179.43 31.4429 179.538 31.3573 179.746 31.3818C179.828 31.394 179.912 31.394 179.993 31.3818C180.215 31.3818 180.304 31.4368 180.342 31.6509C180.43 32.1524 180.538 32.6479 180.658 33.1433C180.706 33.4634 180.859 33.7605 181.093 33.9915C181.328 34.2224 181.632 34.3752 181.963 34.4277C182.476 34.4612 182.991 34.4489 183.502 34.391C183.537 34.3812 183.569 34.3624 183.595 34.3366C183.62 34.3108 183.639 34.279 183.647 34.2442C183.685 33.81 183.704 33.3757 183.729 32.9292H183.413C183.307 32.9411 183.199 32.9323 183.096 32.9036C182.994 32.8748 182.898 32.8265 182.815 32.7616C182.732 32.6967 182.663 32.6164 182.612 32.5255C182.562 32.4345 182.53 32.3347 182.52 32.2319C182.425 31.8833 182.368 31.5285 182.254 31.186C182.184 30.9658 182.254 30.868 182.444 30.7579C182.872 30.5328 183.24 30.2153 183.52 29.8302C183.8 29.4451 183.985 29.0028 184.059 28.5376C184.23 27.4611 183.869 26.562 183.001 26.1645L182.976 26.1461ZM181.526 29.3205C181.454 29.4818 181.33 29.6164 181.173 29.7045C181.015 29.7925 180.833 29.8295 180.652 29.8098C180.348 29.7943 180.044 29.7943 179.74 29.8098C179.867 29.0453 179.974 28.3419 180.101 27.6385C180.116 27.6006 180.14 27.5665 180.17 27.5389C180.201 27.5113 180.238 27.491 180.278 27.4795C180.535 27.455 180.794 27.455 181.051 27.4795C181.237 27.5038 181.408 27.5908 181.534 27.725C181.661 27.8593 181.734 28.0322 181.741 28.2134C181.793 28.5923 181.708 28.9767 181.501 29.3022" fill="#0E307D"/>
<path d="M175.77 32.2441C175.333 30.1645 174.896 28.091 174.465 26.0053C174.421 25.8157 174.345 25.7484 174.136 25.7484C173.661 25.7484 173.186 25.7484 172.711 25.7484C172.616 25.7367 172.519 25.7563 172.436 25.804C172.354 25.8516 172.29 25.9247 172.255 26.0114C171.432 27.5466 170.603 29.0696 169.78 30.6049C169.735 30.6966 169.685 30.7822 169.634 30.874L167.924 34.0484C167.874 34.1401 167.836 34.238 167.766 34.3848C168.519 34.3848 169.222 34.3848 169.919 34.3848C169.995 34.3848 170.09 34.2808 170.128 34.2013C170.368 33.7426 170.603 33.2777 170.824 32.8006C170.851 32.7261 170.903 32.6625 170.972 32.6203C171.041 32.5781 171.123 32.5597 171.204 32.5682C171.914 32.5682 172.629 32.5682 173.345 32.5682C173.56 32.5682 173.63 32.6416 173.661 32.8312C173.725 33.2655 173.794 33.6998 173.883 34.1279C173.883 34.2258 173.997 34.3848 174.066 34.3848C174.763 34.3848 175.466 34.3848 176.207 34.3848C176.207 34.2319 176.169 34.1157 176.143 33.9995C176.023 33.3878 175.897 32.8312 175.77 32.2441ZM171.755 30.9351C172.135 30.1645 172.502 29.4305 172.87 28.6965H172.958C173.079 29.4305 173.205 30.1645 173.332 30.9351H171.755Z" fill="#0E307D"/>
<path d="M165.809 32.7091C165.591 32.7725 165.361 32.7871 165.136 32.7519C164.912 32.7167 164.698 32.6325 164.512 32.5058C164.326 32.3791 164.172 32.2132 164.062 32.0206C163.952 31.828 163.889 31.6137 163.878 31.3941C163.729 30.4807 163.868 29.5452 164.277 28.709C164.436 28.3226 164.712 27.9916 165.069 27.7592C165.426 27.5268 165.847 27.4038 166.278 27.4062H166.544C167.012 27.4429 167.481 27.5224 167.981 27.5897C168.158 27.0881 168.348 26.5682 168.538 26.0422C168.402 25.843 168.212 25.6836 167.989 25.5812C167.766 25.4788 167.518 25.4373 167.272 25.4612H162.358L162.307 25.6875C162.909 25.8392 163.499 26.0293 164.074 26.2563C163.532 26.5497 163.058 26.9473 162.681 27.4245C161.738 28.655 161.313 30.1848 161.491 31.706C161.512 32.2593 161.705 32.7937 162.043 33.2406C162.382 33.6874 162.851 34.0263 163.39 34.2138C164.031 34.4503 164.716 34.5525 165.401 34.5135C166.085 34.4745 166.753 34.2952 167.361 33.9874C167.43 33.9507 167.525 33.859 167.519 33.7978C167.462 33.3085 167.386 32.8253 167.323 32.3666C166.797 32.4889 166.322 32.6235 165.834 32.7091" fill="#0E307D"/>
</g>
<defs>
<filter id="filter0_d_10_922" x="0" y="0" width="353" height="60" filterUnits="userSpaceOnUse" color-interpolation-filters="sRGB">
<feFlood flood-opacity="0" result="BackgroundImageFix"/>
<feColorMatrix in="SourceAlpha" type="matrix" values="0 0 0 0 0 0 0 0 0 0 0 0 0 0 0 0 0 0 127 0" result="hardAlpha"/>
<feOffset/>
<feGaussianBlur stdDeviation="2.5"/>
<feColorMatrix type="matrix" values="0 0 0 0 0 0 0 0 0 0 0 0 0 0 0 0 0 0 0.2 0"/>
<feBlend mode="normal" in2="BackgroundImageFix" result="effect1_dropShadow_10_922"/>
<feBlend mode="normal" in="SourceGraphic" in2="effect1_dropShadow_10_922" result="shape"/>
</filter>
</defs>
</svg>
