<svg width="47" height="47" viewBox="0 0 47 47" fill="none" xmlns="http://www.w3.org/2000/svg">
<path d="M22.4519 7.43621C22.8236 7.11409 23.0094 6.95302 23.2181 6.8917C23.4021 6.83767 23.5978 6.83767 23.7818 6.8917C23.9905 6.95302 24.1763 7.11409 24.548 7.43622L27.142 9.6848C27.3515 9.86644 27.4563 9.95726 27.5761 10.0151C27.6822 10.0663 27.7965 10.0984 27.9138 10.1098C28.0461 10.1227 28.1828 10.0996 28.4563 10.0535L31.9538 9.46308C32.4582 9.37793 32.7104 9.33536 32.9264 9.39609C33.1166 9.44957 33.2867 9.55821 33.4152 9.70829C33.5611 9.87868 33.6286 10.1254 33.7635 10.6189L34.5855 13.6263C34.6639 13.9129 34.7031 14.0562 34.7769 14.1771C34.8423 14.2841 34.9272 14.3779 35.0273 14.4536C35.1402 14.539 35.279 14.5922 35.5564 14.6985L38.662 15.8885C39.1755 16.0852 39.4322 16.1836 39.5919 16.3586C39.7323 16.5125 39.8212 16.7065 39.8461 16.9134C39.8743 17.1486 39.7812 17.4072 39.5949 17.9246L38.5912 20.7125C38.4844 21.0092 38.431 21.1575 38.4237 21.3068C38.4172 21.4389 38.4371 21.571 38.482 21.6954C38.5328 21.836 38.6274 21.9621 38.8165 22.2144L40.6296 24.6324C40.9663 25.0814 41.1346 25.3059 41.1757 25.5428C41.2117 25.7512 41.1808 25.9656 41.0874 26.1554C40.9811 26.371 40.7562 26.5389 40.3064 26.8745L37.7754 28.7633C37.5283 28.9477 37.4048 29.0399 37.3175 29.1575C37.2401 29.2616 37.1838 29.3798 37.1516 29.5054C37.1152 29.6472 37.1214 29.8013 37.1336 30.1094L37.2532 33.1064C37.2744 33.6372 37.285 33.9026 37.1921 34.1139C37.1104 34.3 36.974 34.4567 36.8009 34.5633C36.6044 34.6843 36.3401 34.7104 35.8115 34.7625L32.3576 35.103C32.0733 35.131 31.9312 35.145 31.8038 35.1944C31.6909 35.2382 31.587 35.3021 31.4969 35.383C31.3953 35.4743 31.3186 35.5947 31.1651 35.8356L29.4033 38.6012C29.1363 39.0205 29.0027 39.2301 28.8182 39.3488C28.6556 39.4534 28.4661 39.5086 28.2728 39.5077C28.0534 39.5068 27.8281 39.4017 27.3776 39.1916L24.1762 37.6986C23.9276 37.5827 23.8033 37.5247 23.6736 37.5019C23.5587 37.4816 23.4412 37.4816 23.3263 37.5019C23.1966 37.5247 23.0723 37.5827 22.8237 37.6986L19.6223 39.1916C19.1717 39.4017 18.9465 39.5068 18.7271 39.5077C18.5337 39.5086 18.3443 39.4534 18.1817 39.3488C17.9972 39.2301 17.8636 39.0205 17.5966 38.6012L15.8348 35.8356C15.6813 35.5947 15.6046 35.4743 15.503 35.383C15.4129 35.3021 15.3089 35.2382 15.1961 35.1944C15.0687 35.145 14.9266 35.131 14.6423 35.103L11.1884 34.7625C10.6598 34.7104 10.3955 34.6843 10.1989 34.5633C10.0259 34.4567 9.88946 34.3 9.80775 34.1139C9.71492 33.9026 9.72551 33.6372 9.74668 33.1064L9.86624 30.1094C9.87853 29.8013 9.88468 29.6472 9.8483 29.5054C9.81609 29.3798 9.75976 29.2616 9.68243 29.1575C9.5951 29.0399 9.47155 28.9477 9.22444 28.7633L6.69345 26.8745C6.24368 26.5389 6.01879 26.371 5.91252 26.1554C5.81906 25.9656 5.78814 25.7512 5.82423 25.5428C5.86526 25.3059 6.0336 25.0814 6.37028 24.6324L8.18338 22.2144C8.37253 21.9621 8.4671 21.836 8.51789 21.6954C8.56284 21.571 8.58266 21.4389 8.57619 21.3068C8.56889 21.1575 8.51549 21.0092 8.40869 20.7125L7.40495 17.9246C7.2187 17.4072 7.12558 17.1486 7.15383 16.9134C7.17868 16.7065 7.26756 16.5125 7.40804 16.3586C7.5677 16.1836 7.82442 16.0852 8.33786 15.8885L11.4435 14.6985C11.7209 14.5922 11.8596 14.539 11.9726 14.4536C12.0727 14.3779 12.1576 14.2841 12.223 14.1771C12.2968 14.0562 12.336 13.9129 12.4143 13.6263L13.2364 10.6189C13.3713 10.1254 13.4387 9.87868 13.5847 9.70829C13.7132 9.55821 13.8833 9.44957 14.0735 9.39609C14.2895 9.33536 14.5417 9.37793 15.0461 9.46308L18.5436 10.0535C18.817 10.0996 18.9538 10.1227 19.0861 10.1098C19.2034 10.0984 19.3177 10.0663 19.4238 10.0151C19.5436 9.95726 19.6484 9.86644 19.8579 9.6848L22.4519 7.43621Z" stroke="#57DE04" stroke-width="0.8"/>
<path d="M16.6458 24.1528L20.4904 27.9975V27.9975C20.8907 28.3977 21.5397 28.3977 21.94 27.9975V27.9975L30.3541 19.5833" stroke="#57DE04" stroke-width="0.8" stroke-linecap="round" stroke-linejoin="round"/>
</svg>
