<svg width="148" height="41" viewBox="0 0 148 41" fill="none" xmlns="http://www.w3.org/2000/svg">
<g clip-path="url(#clip0_179_1044)">
<path d="M36.284 2.66545e-06V0.437195C36.284 2.63246 36.2716 4.82773 36.2965 7.02299C36.3027 7.46639 36.1503 7.76715 35.8487 8.06171C34.0608 9.82599 32.2853 11.5996 30.5067 13.3762C30.0154 13.8661 29.5334 14.3685 29.0422 14.8615C28.8991 15.0041 28.7405 15.1343 28.4918 15.3576C28.4918 15.0506 28.4918 14.8522 28.4918 14.6568C28.4918 12.4988 28.4918 10.3438 28.4918 8.18574C28.4918 7.64933 28.4918 7.65243 27.9725 7.65243C25.7772 7.65553 23.5789 7.65863 21.3836 7.65863C21.2592 7.65863 21.1348 7.64623 20.9296 7.63692C21.0385 7.48809 21.0913 7.39197 21.1659 7.31756C23.5167 4.98896 25.8674 2.65727 28.2306 0.344176C28.4078 0.170539 28.6939 0.015506 28.9302 0.0124053C31.3587 -0.0124 33.784 -0.00309799 36.2809 -0.00309799L36.284 2.66545e-06Z" fill="#8A1538"/>
<path d="M0 15.3886C1.20024 15.3886 2.36317 15.3979 3.52299 15.3824C3.84949 15.3793 3.83083 15.5653 3.83083 15.7792C3.83083 17.3451 3.82772 18.9109 3.82772 20.4767C3.82772 21.2085 3.84016 21.9403 3.82772 22.672C3.8215 22.9852 3.921 23.0999 4.24749 23.0968C5.38244 23.0813 6.51739 23.0906 7.68342 23.0906V27.0067C7.56527 27.0067 7.43156 27.0067 7.29785 27.0067C6.27796 27.0067 5.25806 27.0191 4.23817 27.0005C3.90857 26.9943 3.82461 27.1091 3.82772 27.4222C3.84016 29.7322 3.83705 32.0422 3.84016 34.3553C3.84016 34.4545 3.84016 34.5568 3.84016 34.6871H0V15.3917V15.3886Z" fill="#FFFEFE"/>
<path d="M11.6168 27.3292C11.6168 27.0191 11.5391 26.9044 11.2064 26.9137C10.3047 26.9385 9.39981 26.923 8.49496 26.923C8.35815 26.923 8.22133 26.9106 7.95392 26.8982C8.11872 26.6874 8.19645 26.5571 8.29907 26.4548C9.33762 25.4192 10.3793 24.3867 11.4303 23.3604C11.5298 23.2611 11.6884 23.1712 11.8221 23.165C12.957 23.1309 14.092 23.1216 15.2269 23.0968C15.4477 23.0906 15.5254 23.1898 15.5254 23.3945C15.5223 24.5107 15.5441 25.63 15.4974 26.7432C15.4881 26.9633 15.2518 27.2052 15.0683 27.3881C14.0204 28.433 12.957 29.4625 11.9029 30.5012C11.8407 30.5632 11.7288 30.6345 11.6168 30.7647" fill="#8A1538"/>
<path d="M11.6262 15.3886C12.8358 15.3886 14.0081 15.3979 15.1834 15.3824C15.4819 15.3793 15.5534 15.4785 15.5503 15.7575C15.5379 16.8087 15.5566 17.8629 15.541 18.914C15.541 19.0721 15.4633 19.2706 15.3513 19.3822C14.1666 20.5636 12.9695 21.7325 11.7755 22.9046C11.7506 22.9294 11.7102 22.9356 11.6262 22.9697V15.3886Z" fill="white"/>
<path d="M17.6336 19.6458H21.6137L24.3593 31.2546H25.0527L27.7984 19.6458H31.7816L26.4737 41.0031H22.5216L24.1821 34.6871H21.3463L17.6367 19.6489L17.6336 19.6458Z" fill="white"/>
<path d="M38.1435 41H34.1012V19.6458H38.1124V20.4581C39.4183 19.6768 40.5657 19.2861 41.5514 19.2861C42.5371 19.2861 43.4606 19.4318 44.2069 19.7233C44.95 20.0147 45.5657 20.4767 46.0477 21.1062C46.5296 21.7387 46.8934 22.5635 47.1329 23.5867C47.3723 24.6099 47.4936 25.844 47.4936 27.2858C47.4936 28.7276 47.363 29.9462 47.1018 30.9415C46.8406 31.9337 46.4332 32.7368 45.8798 33.3476C45.3263 33.9584 44.6173 34.3956 43.7529 34.6561C42.8885 34.9165 41.853 35.0467 40.6466 35.0467C39.9843 35.0467 39.2691 34.9878 38.5042 34.8669L38.1435 34.808V41.0031V41ZM40.7678 22.8922C40.0247 22.8922 39.2691 23.041 38.5042 23.3449L38.1435 23.4937V31.3756C39.0483 31.4965 39.7821 31.5554 40.345 31.5554C41.511 31.5554 42.3101 31.2143 42.7423 30.5322C43.1745 29.85 43.3922 28.6873 43.3922 27.0439C43.3922 24.2782 42.5185 22.8922 40.7678 22.8922Z" fill="white"/>
<path d="M62.6987 28.8795H53.8306C53.8493 29.8035 54.0918 30.4702 54.5551 30.8794C55.0184 31.2918 55.7025 31.4965 56.6074 31.4965C58.4792 31.4965 60.1459 31.4376 61.6136 31.3166L62.4593 31.2267L62.5184 34.2034C60.2454 34.7646 58.1528 35.0467 56.2436 35.0467C53.9706 35.0467 52.3225 34.4452 51.2964 33.2422C50.2703 32.0391 49.7573 30.0826 49.7573 27.3757C49.7573 21.9806 51.9805 19.283 56.4239 19.283C60.8673 19.283 63.0004 21.5496 63.0004 26.0796L62.6987 28.8764V28.8795ZM53.7995 25.813H59.0172C59.0172 24.6099 58.8306 23.7727 58.4606 23.3014C58.0874 22.8301 57.4189 22.5945 56.455 22.5945C55.4911 22.5945 54.8101 22.8394 54.4183 23.3324C54.0265 23.8255 53.8213 24.6502 53.7995 25.813Z" fill="white"/>
<path d="M69.9375 34.684H65.8953V19.6458H69.9064V21.2395C71.6353 20.238 73.2429 19.5838 74.7323 19.283V23.3449C73.9083 23.5061 73.1496 23.6766 72.4562 23.8565C71.7628 24.0363 71.1253 24.2161 70.5408 24.3991L69.9375 24.6099V34.6871V34.684Z" fill="white"/>
<path d="M77.4779 34.684V14.232H84.5674L88.1868 29.1524L91.8062 14.232H98.8957V34.6871H94.7322V18.8644H94.2782L90.267 33.7848H86.1035L82.0923 18.8644H81.6383V34.6871H77.4748L77.4779 34.684Z" fill="#8A1538"/>
<path d="M115.183 28.8795H106.315C106.333 29.8035 106.576 30.4702 107.039 30.8794C107.503 31.2918 108.187 31.4965 109.092 31.4965C110.96 31.4965 112.63 31.4376 114.098 31.3166L114.944 31.2267L115.003 34.2034C112.73 34.7646 110.637 35.0467 108.728 35.0467C106.455 35.0467 104.807 34.4452 103.781 33.2422C102.755 32.0391 102.241 30.0826 102.241 27.3757C102.241 21.9806 104.465 19.283 108.908 19.283C113.351 19.283 115.485 21.5496 115.485 26.0796L115.183 28.8764V28.8795ZM106.284 25.813H111.501C111.501 24.6099 111.315 23.7727 110.945 23.3014C110.572 22.8301 109.903 22.5945 108.939 22.5945C107.975 22.5945 107.294 22.8394 106.903 23.3324C106.511 23.8255 106.305 24.6502 106.284 25.813Z" fill="#8A1538"/>
<path d="M122.422 23.4348V34.684H118.379V19.6458H122.391V20.4892C123.737 19.6861 124.993 19.2861 126.162 19.2861C127.167 19.2861 128.006 19.4318 128.681 19.7233C129.356 20.0147 129.897 20.4612 130.31 21.0628C130.724 21.6643 131.019 22.4178 131.2 23.3201C131.38 24.2223 131.47 25.2952 131.47 26.5385V34.6902H127.428V26.6595C127.428 25.3758 127.276 24.4301 126.974 23.8162C126.672 23.2053 126.069 22.8984 125.164 22.8984C124.359 22.8984 123.566 23.0379 122.782 23.3201L122.422 23.441V23.4348Z" fill="#8A1538"/>
<path d="M143.958 30.895V19.6458H148V34.684H143.989V33.8406C142.562 34.6437 141.305 35.0436 140.217 35.0436C139.129 35.0436 138.308 34.9041 137.624 34.622C136.94 34.3398 136.396 33.8995 135.994 33.298C135.593 32.6964 135.31 31.9182 135.149 30.9663C134.987 30.0144 134.906 28.8671 134.906 27.5214V19.6396H138.948V27.5804C138.948 28.3214 138.973 28.9384 139.023 29.4314C139.073 29.9245 139.172 30.3182 139.325 30.619C139.477 30.9198 139.685 31.1306 139.959 31.2515C140.229 31.3725 140.596 31.4314 141.06 31.4314C141.924 31.4314 142.757 31.2918 143.563 31.0097L143.955 30.8888L143.958 30.895Z" fill="#8A1538"/>
<path d="M15.5286 30.805H11.6107V34.532H15.5286V30.805Z" fill="white"/>
</g>
<defs>
<clipPath id="clip0_179_1044">
<rect width="148" height="41" fill="white"/>
</clipPath>
</defs>
</svg>
